<svg width="192" height="24" viewBox="0 0 192 24" fill="none" xmlns="http://www.w3.org/2000/svg">
<path fill-rule="evenodd" clip-rule="evenodd" d="M17.5 19.5V4.5H2.5V19.5H17.5ZM20 2H0V22H20V2Z" fill="#14367B"/>
<path d="M38.432 5.99V7.664H35.102V18.5H33.05V7.664H29.702V5.99H38.432ZM44.8122 18.662C43.8762 18.662 43.0302 18.452 42.2742 18.032C41.5182 17.6 40.9242 17 40.4922 16.232C40.0602 15.452 39.8442 14.552 39.8442 13.532C39.8442 12.524 40.0662 11.63 40.5102 10.85C40.9542 10.07 41.5602 9.47 42.3282 9.05C43.0962 8.63 43.9542 8.42 44.9022 8.42C45.8502 8.42 46.7082 8.63 47.4762 9.05C48.2442 9.47 48.8502 10.07 49.2942 10.85C49.7382 11.63 49.9602 12.524 49.9602 13.532C49.9602 14.54 49.7322 15.434 49.2762 16.214C48.8202 16.994 48.1962 17.6 47.4042 18.032C46.6242 18.452 45.7602 18.662 44.8122 18.662ZM44.8122 16.88C45.3402 16.88 45.8322 16.754 46.2882 16.502C46.7562 16.25 47.1342 15.872 47.4222 15.368C47.7102 14.864 47.8542 14.252 47.8542 13.532C47.8542 12.812 47.7162 12.206 47.4402 11.714C47.1642 11.21 46.7982 10.832 46.3422 10.58C45.8862 10.328 45.3942 10.202 44.8662 10.202C44.3382 10.202 43.8462 10.328 43.3902 10.58C42.9462 10.832 42.5922 11.21 42.3282 11.714C42.0642 12.206 41.9322 12.812 41.9322 13.532C41.9322 14.6 42.2022 15.428 42.7422 16.016C43.2942 16.592 43.9842 16.88 44.8122 16.88ZM59.6027 11.12V12.848H52.2047V11.12H59.6027ZM66.604 5.99C67.936 5.99 69.1 6.248 70.096 6.764C71.104 7.268 71.878 8 72.418 8.96C72.97 9.908 73.246 11.018 73.246 12.29C73.246 13.562 72.97 14.666 72.418 15.602C71.878 16.538 71.104 17.258 70.096 17.762C69.1 18.254 67.936 18.5 66.604 18.5H62.518V5.99H66.604ZM66.604 16.826C68.068 16.826 69.19 16.43 69.97 15.638C70.75 14.846 71.14 13.73 71.14 12.29C71.14 10.838 70.75 9.704 69.97 8.888C69.19 8.072 68.068 7.664 66.604 7.664H64.57V16.826H66.604ZM79.5817 18.662C78.6457 18.662 77.7997 18.452 77.0437 18.032C76.2877 17.6 75.6937 17 75.2617 16.232C74.8297 15.452 74.6137 14.552 74.6137 13.532C74.6137 12.524 74.8357 11.63 75.2797 10.85C75.7237 10.07 76.3297 9.47 77.0977 9.05C77.8657 8.63 78.7237 8.42 79.6717 8.42C80.6197 8.42 81.4777 8.63 82.2457 9.05C83.0137 9.47 83.6197 10.07 84.0637 10.85C84.5077 11.63 84.7297 12.524 84.7297 13.532C84.7297 14.54 84.5017 15.434 84.0457 16.214C83.5897 16.994 82.9657 17.6 82.1737 18.032C81.3937 18.452 80.5297 18.662 79.5817 18.662ZM79.5817 16.88C80.1097 16.88 80.6017 16.754 81.0577 16.502C81.5257 16.25 81.9037 15.872 82.1917 15.368C82.4797 14.864 82.6237 14.252 82.6237 13.532C82.6237 12.812 82.4857 12.206 82.2097 11.714C81.9337 11.21 81.5677 10.832 81.1117 10.58C80.6557 10.328 80.1637 10.202 79.6357 10.202C79.1077 10.202 78.6157 10.328 78.1597 10.58C77.7157 10.832 77.3617 11.21 77.0977 11.714C76.8337 12.206 76.7017 12.812 76.7017 13.532C76.7017 14.6 76.9717 15.428 77.5117 16.016C78.0637 16.592 78.7537 16.88 79.5817 16.88ZM95.52 5.99C96.852 5.99 98.016 6.248 99.012 6.764C100.02 7.268 100.794 8 101.334 8.96C101.886 9.908 102.162 11.018 102.162 12.29C102.162 13.562 101.886 14.666 101.334 15.602C100.794 16.538 100.02 17.258 99.012 17.762C98.016 18.254 96.852 18.5 95.52 18.5H91.434V5.99H95.52ZM95.52 16.826C96.984 16.826 98.106 16.43 98.886 15.638C99.666 14.846 100.056 13.73 100.056 12.29C100.056 10.838 99.666 9.704 98.886 8.888C98.106 8.072 96.984 7.664 95.52 7.664H93.486V16.826H95.52ZM103.512 13.496C103.512 12.5 103.716 11.618 104.124 10.85C104.544 10.082 105.108 9.488 105.816 9.068C106.536 8.636 107.328 8.42 108.192 8.42C108.972 8.42 109.65 8.576 110.226 8.888C110.814 9.188 111.282 9.566 111.63 10.022V8.582H113.7V18.5H111.63V17.024C111.282 17.492 110.808 17.882 110.208 18.194C109.608 18.506 108.924 18.662 108.156 18.662C107.304 18.662 106.524 18.446 105.816 18.014C105.108 17.57 104.544 16.958 104.124 16.178C103.716 15.386 103.512 14.492 103.512 13.496ZM111.63 13.532C111.63 12.848 111.486 12.254 111.198 11.75C110.922 11.246 110.556 10.862 110.1 10.598C109.644 10.334 109.152 10.202 108.624 10.202C108.096 10.202 107.604 10.334 107.148 10.598C106.692 10.85 106.32 11.228 106.032 11.732C105.756 12.224 105.618 12.812 105.618 13.496C105.618 14.18 105.756 14.78 106.032 15.296C106.32 15.812 106.692 16.208 107.148 16.484C107.616 16.748 108.108 16.88 108.624 16.88C109.152 16.88 109.644 16.748 110.1 16.484C110.556 16.22 110.922 15.836 111.198 15.332C111.486 14.816 111.63 14.216 111.63 13.532ZM119.995 18.662C119.215 18.662 118.513 18.524 117.889 18.248C117.277 17.96 116.791 17.576 116.431 17.096C116.071 16.604 115.879 16.058 115.855 15.458H117.979C118.015 15.878 118.213 16.232 118.573 16.52C118.945 16.796 119.407 16.934 119.959 16.934C120.535 16.934 120.979 16.826 121.291 16.61C121.615 16.382 121.777 16.094 121.777 15.746C121.777 15.374 121.597 15.098 121.237 14.918C120.889 14.738 120.331 14.54 119.563 14.324C118.819 14.12 118.213 13.922 117.745 13.73C117.277 13.538 116.869 13.244 116.521 12.848C116.185 12.452 116.017 11.93 116.017 11.282C116.017 10.754 116.173 10.274 116.485 9.842C116.797 9.398 117.241 9.05 117.817 8.798C118.405 8.546 119.077 8.42 119.833 8.42C120.961 8.42 121.867 8.708 122.551 9.284C123.247 9.848 123.619 10.622 123.667 11.606H121.615C121.579 11.162 121.399 10.808 121.075 10.544C120.751 10.28 120.313 10.148 119.761 10.148C119.221 10.148 118.807 10.25 118.519 10.454C118.231 10.658 118.087 10.928 118.087 11.264C118.087 11.528 118.183 11.75 118.375 11.93C118.567 12.11 118.801 12.254 119.077 12.362C119.353 12.458 119.761 12.584 120.301 12.74C121.021 12.932 121.609 13.13 122.065 13.334C122.533 13.526 122.935 13.814 123.271 14.198C123.607 14.582 123.781 15.092 123.793 15.728C123.793 16.292 123.637 16.796 123.325 17.24C123.013 17.684 122.569 18.032 121.993 18.284C121.429 18.536 120.763 18.662 119.995 18.662ZM131.14 8.42C131.896 8.42 132.568 8.582 133.156 8.906C133.756 9.23 134.224 9.71 134.56 10.346C134.908 10.982 135.082 11.75 135.082 12.65V18.5H133.048V12.956C133.048 12.068 132.826 11.39 132.382 10.922C131.938 10.442 131.332 10.202 130.564 10.202C129.796 10.202 129.184 10.442 128.728 10.922C128.284 11.39 128.062 12.068 128.062 12.956V18.5H126.01V5.18H128.062V9.734C128.41 9.314 128.848 8.99 129.376 8.762C129.916 8.534 130.504 8.42 131.14 8.42ZM139.752 10.058C140.1 9.578 140.574 9.188 141.174 8.888C141.786 8.576 142.464 8.42 143.208 8.42C144.084 8.42 144.876 8.63 145.584 9.05C146.292 9.47 146.85 10.07 147.258 10.85C147.666 11.618 147.87 12.5 147.87 13.496C147.87 14.492 147.666 15.386 147.258 16.178C146.85 16.958 146.286 17.57 145.566 18.014C144.858 18.446 144.072 18.662 143.208 18.662C142.44 18.662 141.756 18.512 141.156 18.212C140.568 17.912 140.1 17.528 139.752 17.06V18.5H137.7V5.18H139.752V10.058ZM145.782 13.496C145.782 12.812 145.638 12.224 145.35 11.732C145.074 11.228 144.702 10.85 144.234 10.598C143.778 10.334 143.286 10.202 142.758 10.202C142.242 10.202 141.75 10.334 141.282 10.598C140.826 10.862 140.454 11.246 140.166 11.75C139.89 12.254 139.752 12.848 139.752 13.532C139.752 14.216 139.89 14.816 140.166 15.332C140.454 15.836 140.826 16.22 141.282 16.484C141.75 16.748 142.242 16.88 142.758 16.88C143.286 16.88 143.778 16.748 144.234 16.484C144.702 16.208 145.074 15.812 145.35 15.296C145.638 14.78 145.782 14.18 145.782 13.496ZM154.201 18.662C153.265 18.662 152.419 18.452 151.663 18.032C150.907 17.6 150.313 17 149.881 16.232C149.449 15.452 149.233 14.552 149.233 13.532C149.233 12.524 149.455 11.63 149.899 10.85C150.343 10.07 150.949 9.47 151.717 9.05C152.485 8.63 153.343 8.42 154.291 8.42C155.239 8.42 156.097 8.63 156.865 9.05C157.633 9.47 158.239 10.07 158.683 10.85C159.127 11.63 159.349 12.524 159.349 13.532C159.349 14.54 159.121 15.434 158.665 16.214C158.209 16.994 157.585 17.6 156.793 18.032C156.013 18.452 155.149 18.662 154.201 18.662ZM154.201 16.88C154.729 16.88 155.221 16.754 155.677 16.502C156.145 16.25 156.523 15.872 156.811 15.368C157.099 14.864 157.243 14.252 157.243 13.532C157.243 12.812 157.105 12.206 156.829 11.714C156.553 11.21 156.187 10.832 155.731 10.58C155.275 10.328 154.783 10.202 154.255 10.202C153.727 10.202 153.235 10.328 152.779 10.58C152.335 10.832 151.981 11.21 151.717 11.714C151.453 12.206 151.321 12.812 151.321 13.532C151.321 14.6 151.591 15.428 152.131 16.016C152.683 16.592 153.373 16.88 154.201 16.88ZM160.693 13.496C160.693 12.5 160.897 11.618 161.305 10.85C161.725 10.082 162.289 9.488 162.997 9.068C163.717 8.636 164.509 8.42 165.373 8.42C166.153 8.42 166.831 8.576 167.407 8.888C167.995 9.188 168.463 9.566 168.811 10.022V8.582H170.881V18.5H168.811V17.024C168.463 17.492 167.989 17.882 167.389 18.194C166.789 18.506 166.105 18.662 165.337 18.662C164.485 18.662 163.705 18.446 162.997 18.014C162.289 17.57 161.725 16.958 161.305 16.178C160.897 15.386 160.693 14.492 160.693 13.496ZM168.811 13.532C168.811 12.848 168.667 12.254 168.379 11.75C168.103 11.246 167.737 10.862 167.281 10.598C166.825 10.334 166.333 10.202 165.805 10.202C165.277 10.202 164.785 10.334 164.329 10.598C163.873 10.85 163.501 11.228 163.213 11.732C162.937 12.224 162.799 12.812 162.799 13.496C162.799 14.18 162.937 14.78 163.213 15.296C163.501 15.812 163.873 16.208 164.329 16.484C164.797 16.748 165.289 16.88 165.805 16.88C166.333 16.88 166.825 16.748 167.281 16.484C167.737 16.22 168.103 15.836 168.379 15.332C168.667 14.816 168.811 14.216 168.811 13.532ZM175.629 10.022C175.929 9.518 176.325 9.128 176.817 8.852C177.321 8.564 177.915 8.42 178.599 8.42V10.544H178.077C177.273 10.544 176.661 10.748 176.241 11.156C175.833 11.564 175.629 12.272 175.629 13.28V18.5H173.577V8.582H175.629V10.022ZM179.801 13.496C179.801 12.5 180.005 11.618 180.413 10.85C180.833 10.082 181.397 9.488 182.105 9.068C182.825 8.636 183.623 8.42 184.499 8.42C185.147 8.42 185.783 8.564 186.407 8.852C187.043 9.128 187.547 9.5 187.919 9.968V5.18H189.989V18.5H187.919V17.006C187.583 17.486 187.115 17.882 186.515 18.194C185.927 18.506 185.249 18.662 184.481 18.662C183.617 18.662 182.825 18.446 182.105 18.014C181.397 17.57 180.833 16.958 180.413 16.178C180.005 15.386 179.801 14.492 179.801 13.496ZM187.919 13.532C187.919 12.848 187.775 12.254 187.487 11.75C187.211 11.246 186.845 10.862 186.389 10.598C185.933 10.334 185.441 10.202 184.913 10.202C184.385 10.202 183.893 10.334 183.437 10.598C182.981 10.85 182.609 11.228 182.321 11.732C182.045 12.224 181.907 12.812 181.907 13.496C181.907 14.18 182.045 14.78 182.321 15.296C182.609 15.812 182.981 16.208 183.437 16.484C183.905 16.748 184.397 16.88 184.913 16.88C185.441 16.88 185.933 16.748 186.389 16.484C186.845 16.22 187.211 15.836 187.487 15.332C187.775 14.816 187.919 14.216 187.919 13.532Z" fill="#3D3D3D"/>
</svg>
